<svg xmlns="http://www.w3.org/2000/svg" xmlns:xlink="http://www.w3.org/1999/xlink" version="1.1" style="enable-background:new 0 0 96 96;" xml:space="preserve" width="234" height="54"><rect id="backgroundrect" width="100%" height="100%" x="0" y="0" fill="none" stroke="none" class="" style=""/>

<style>
    #title{
        font-size:20px;
        font-weight:bold;
    }
</style>


<g class="currentLayer" style=""><title>Layer 1</title><g id="XMLID_2_" class="">
	<path fill="#0080ff" id="XMLID_8_" class="st0" d="M9.438111921980067,-1.2727398459886194e-22 v44.6267214313382 c21.033506568984148,0 24.943581508090176,2.523534842843529 32.35924087536023,6.242428295455046 V6.109610672147488 C38.022108028548274,2.390717219535976 32.494071045674225,-1.2727398459886194e-22 9.438111921980067,-1.2727398459886194e-22 zM78.20149878212055,-1.2727398459886194e-22 c-23.055959123694166,0 -28.718826276882204,2.523534842843529 -32.35924087536023,6.242428295455046 v44.6267214313382 c7.415659367270053,-3.7188934526115163 11.325734306376079,-6.242428295455046 32.35924087536023,-6.242428295455046 V-1.2727398459886194e-22 zM0,4.648616815764395 v47.8143443907195 H38.42659853949027 c-6.202187834444043,-2.9219877127661915 -10.651583454806074,-4.648616815764395 -28.988486617510205,-4.648616815764395 h-3.1010939172220215 v-3.0548053360737457 V4.648616815764395 H0 zM81.43742286965659,4.648616815764395 v39.978104615573805 v3.0548053360737457 h-3.1010939172220215 c-18.33690316270413,0 -22.786298783066158,1.7266291029982042 -28.988486617510205,4.648616815764395 h38.42659853949027 v-47.8143443907195 H81.43742286965659 z"/>
    <text id="title" text-anchor="middle" x="119.5" y="31.70000016749496" fill="green" transform="matrix(1.3483017031400095,0,0,1.3281762330755416,0,-2.2246282556645058e-7) ">Book Store</text>
</g></g></svg>